<svg width="18" height="34" viewBox="0 0 18 34" fill="none" xmlns="http://www.w3.org/2000/svg">
<path d="M2.32083 0.403032L17.582 15.9748C17.85 16.2483 18 16.6151 18 16.9971C18 17.379 17.85 17.7459 17.582 18.0194L2.32083 33.597C2.19598 33.7245 2.0467 33.8259 1.8818 33.8951C1.71691 33.9643 1.53974 34 1.36076 34C1.18178 34 1.00461 33.9643 0.839714 33.8951C0.674818 33.8259 0.525537 33.7245 0.400681 33.597C0.143808 33.3354 0 32.9843 0 32.6186C0 32.253 0.143808 31.9018 0.400681 31.6402L14.7518 16.9971L0.400681 2.35682C0.14469 2.09538 0.00143814 1.74487 0.00143814 1.37993C0.00143814 1.01499 0.14469 0.664471 0.400681 0.403032C0.525537 0.275484 0.674818 0.174107 0.839714 0.104885C1.00461 0.0356633 1.18178 0 1.36076 0C1.53974 0 1.71691 0.0356633 1.8818 0.104885C2.0467 0.174107 2.19598 0.275484 2.32083 0.403032Z" fill="#333333"/>
</svg>
