<svg width="17" height="18" viewBox="0 0 17 18" fill="none" xmlns="http://www.w3.org/2000/svg">
<path d="M13.3944 13.4744H4.97348C4.19069 13.4744 3.43953 13.1476 2.90976 12.5795C2.37999 12.0115 2.11116 11.2489 2.17442 10.4785L2.8307 2.72802C2.85442 2.48679 2.76744 2.25334 2.60139 2.07437C2.43534 1.89539 2.20604 1.80201 1.96093 1.80201H0.593023C0.268837 1.80201 0 1.53743 0 1.21839C0 0.89934 0.268837 0.634766 0.593023 0.634766H1.96884C2.54605 0.634766 3.09162 0.875992 3.47907 1.28842C3.69255 1.52187 3.85069 1.79423 3.93767 2.09771H13.8135C14.6121 2.09771 15.3474 2.40897 15.8851 2.96925C16.4149 3.5373 16.6837 4.27656 16.6205 5.0625L16.1935 10.8987C16.1065 12.3227 14.8414 13.4744 13.3944 13.4744ZM3.97721 3.25716L3.36047 10.5719C3.32093 11.0232 3.47116 11.4512 3.77953 11.7858C4.08791 12.1204 4.51488 12.2994 4.97348 12.2994H13.3944C14.2167 12.2994 14.96 11.6146 15.0233 10.8053L15.4502 4.96912C15.4819 4.51001 15.3316 4.07424 15.0233 3.75519C14.7149 3.42837 14.2879 3.24937 13.8214 3.24937H3.97721V3.25716Z" fill="white"/>
<path d="M11.8607 17.3653C10.9909 17.3653 10.2793 16.665 10.2793 15.809C10.2793 14.953 10.9909 14.2527 11.8607 14.2527C12.7305 14.2527 13.4421 14.953 13.4421 15.809C13.4421 16.665 12.7305 17.3653 11.8607 17.3653ZM11.8607 15.4199C11.6393 15.4199 11.4653 15.5911 11.4653 15.809C11.4653 16.0269 11.6393 16.1981 11.8607 16.1981C12.0821 16.1981 12.256 16.0269 12.256 15.809C12.256 15.5911 12.0821 15.4199 11.8607 15.4199Z" fill="white"/>
<path d="M5.53452 17.3651C4.66475 17.3651 3.95312 16.6647 3.95312 15.8088C3.95312 14.9528 4.66475 14.2524 5.53452 14.2524C6.40429 14.2524 7.11592 14.9528 7.11592 15.8088C7.11592 16.6647 6.40429 17.3651 5.53452 17.3651ZM5.53452 15.4197C5.31313 15.4197 5.13917 15.5909 5.13917 15.8088C5.13917 16.0266 5.31313 16.1978 5.53452 16.1978C5.75592 16.1978 5.92987 16.0266 5.92987 15.8088C5.92987 15.5909 5.75592 15.4197 5.53452 15.4197Z" fill="white"/>
<path d="M15.6166 6.47095H6.12818C5.80399 6.47095 5.53516 6.20638 5.53516 5.88733C5.53516 5.56829 5.80399 5.30371 6.12818 5.30371H15.6166C15.9407 5.30371 16.2096 5.56829 16.2096 5.88733C16.2096 6.20638 15.9407 6.47095 15.6166 6.47095Z" fill="white"/>
</svg>
