<svg width="20" height="18" viewBox="0 0 20 18" fill="none" xmlns="http://www.w3.org/2000/svg">
<path d="M10.1299 17.3652C9.85593 17.3652 9.59081 17.3305 9.36988 17.2525C5.99407 16.1169 0.629883 12.086 0.629883 6.13067C0.629883 3.09665 3.13081 0.634766 6.20616 0.634766C7.69965 0.634766 9.09593 1.20689 10.1299 2.22979C11.1638 1.20689 12.5601 0.634766 14.0536 0.634766C17.129 0.634766 19.6299 3.10532 19.6299 6.13067C19.6299 12.0947 14.2657 16.1169 10.8899 17.2525C10.669 17.3305 10.4038 17.3652 10.1299 17.3652ZM6.20616 1.93506C3.8643 1.93506 1.95546 3.81615 1.95546 6.13067C1.95546 12.0513 7.76151 15.3454 9.80291 16.0302C9.96198 16.0822 10.3066 16.0822 10.4657 16.0302C12.4983 15.3454 18.3131 12.06 18.3131 6.13067C18.3131 3.81615 16.4043 1.93506 14.0624 1.93506C12.7192 1.93506 11.4731 2.55053 10.669 3.61677C10.4215 3.94618 9.85593 3.94618 9.60849 3.61677C8.78663 2.54186 7.54942 1.93506 6.20616 1.93506Z" fill="white"/>
</svg>
